<svg width="101" height="101" viewBox="0 0 101 101" fill="none" xmlns="http://www.w3.org/2000/svg">
<path d="M50.5 32.2283C53.625 19.8924 65.4278 13.5935 91.125 13.4783C91.5358 13.4767 91.9429 13.5565 92.3227 13.713C92.7026 13.8695 93.0477 14.0996 93.3382 14.3901C93.6287 14.6806 93.8588 15.0257 94.0153 15.4056C94.1718 15.7854 94.2516 16.1925 94.25 16.6033V72.8533C94.25 73.6821 93.9208 74.477 93.3347 75.063C92.7487 75.6491 91.9538 75.9783 91.125 75.9783C66.125 75.9783 56.4668 81.0193 50.5 88.4783M50.5 32.2283C47.375 19.8924 35.5723 13.5935 9.87502 13.4783C9.46421 13.4767 9.05715 13.5565 8.67731 13.713C8.29746 13.8695 7.95235 14.0996 7.66186 14.3901C7.37137 14.6806 7.14124 15.0257 6.98474 15.4056C6.82825 15.7854 6.74847 16.1925 6.75002 16.6033V72.4763C6.75002 74.406 7.94533 75.9783 9.87502 75.9783C34.875 75.9783 44.5684 81.0564 50.5 88.4783M50.5 32.2283V88.4783" stroke="#2C2C32" stroke-width="6.25" stroke-linecap="round" stroke-linejoin="round"/>
</svg>
