<svg width="100" height="101" viewBox="0 0 100 101" fill="none" xmlns="http://www.w3.org/2000/svg">
<path d="M82.9082 67.6448H32.9082C29.0332 67.6448 27.0957 67.6448 25.504 68.0698C23.3845 68.6381 21.4519 69.7544 19.9006 71.3065C18.3493 72.8585 17.2339 74.7916 16.6665 76.9114" stroke="#2C2C32" stroke-width="6.25"/>
<path d="M33.3332 30.1449H66.6665M33.3332 44.7282H54.1665M41.6665 92.6449C29.8832 92.6449 23.9873 92.6449 20.329 88.9824C16.6665 85.324 16.6665 79.4282 16.6665 67.6449V34.3115C16.6665 22.5282 16.6665 16.6324 20.329 12.974C23.9873 9.31152 29.8832 9.31152 41.6665 9.31152H58.3332C70.1165 9.31152 76.0123 9.31152 79.6707 12.974C83.3332 16.6324 83.3332 22.5282 83.3332 34.3115M58.3332 92.6449C70.1165 92.6449 76.0123 92.6449 79.6707 88.9824C83.3332 85.324 83.3332 79.4282 83.3332 67.6449V50.9782" stroke="#2C2C32" stroke-width="6.25" stroke-linecap="round"/>
</svg>
