<svg width="100" height="101" viewBox="0 0 100 101" fill="none" xmlns="http://www.w3.org/2000/svg">
<path d="M78.0002 62.4783C79.4585 58.9367 80.2502 55.145 80.2502 50.9783C80.2502 47.9783 79.7918 45.1033 79.0002 42.4367C76.2918 43.0617 73.4585 43.395 70.5002 43.395C64.4417 43.4015 58.4705 41.9513 53.0899 39.1668C47.7092 36.3822 43.077 32.3448 39.5835 27.395C35.8464 36.4374 28.7965 43.7108 19.8752 47.7283C19.7085 48.77 19.7085 49.895 19.7085 50.9783C19.7085 54.9563 20.492 58.8953 22.0143 62.5705C23.5366 66.2456 25.7679 69.5849 28.5807 72.3978C34.2615 78.0786 41.9663 81.27 50.0002 81.27C54.3752 81.27 58.5835 80.3117 62.3752 78.6033C64.7502 83.145 65.8335 85.395 65.7502 85.395C58.9168 87.6867 53.6252 88.8117 50.0002 88.8117C39.9168 88.8117 30.2918 84.8533 23.2085 77.7283C18.9002 73.4333 15.6975 68.1575 13.8752 62.3533H8.3335V43.395H12.8752C14.2512 36.6971 17.4147 30.4967 22.0301 25.4516C26.6455 20.4066 32.5406 16.705 39.0899 14.7398C45.6391 12.7746 52.5982 12.619 59.2288 14.2896C65.8593 15.9602 71.9139 19.3946 76.7502 24.2283C82.0011 29.4586 85.5827 36.1288 87.0418 43.395H91.6668V62.3533H91.4168L76.5835 75.9783L54.5002 73.4783V66.52H74.6252L78.0002 62.4783ZM38.6252 50.02C39.8752 50.02 41.0835 50.52 41.9585 51.4367C42.8379 52.3232 43.3313 53.5213 43.3313 54.77C43.3313 56.0187 42.8379 57.2168 41.9585 58.1033C41.0835 58.9783 39.8752 59.4783 38.6252 59.4783C36.0002 59.4783 33.8752 57.395 33.8752 54.77C33.8752 52.145 36.0002 50.02 38.6252 50.02ZM61.3335 50.02C63.9585 50.02 66.0418 52.145 66.0418 54.77C66.0418 57.395 63.9585 59.4783 61.3335 59.4783C58.7085 59.4783 56.5835 57.395 56.5835 54.77C56.5835 53.5102 57.0839 52.302 57.9747 51.4112C58.8655 50.5204 60.0737 50.02 61.3335 50.02Z" fill="#2C2C32"/>
</svg>
