<svg width="101" height="101" viewBox="0 0 101 101" fill="none" xmlns="http://www.w3.org/2000/svg">
<path d="M42.1678 69.7284L54.6678 73.895C54.6678 73.895 85.9178 67.645 90.0845 67.645C94.2511 67.645 94.2511 71.8117 90.0845 75.9784C85.9178 80.145 71.3345 92.645 58.8345 92.645C46.3345 92.645 38.0011 86.395 29.6678 86.395H8.83447" stroke="#2C2C32" stroke-width="8.33333" stroke-linecap="round" stroke-linejoin="round"/>
<path d="M8.83447 61.395C13.0011 57.2284 21.3345 50.9784 29.6678 50.9784C38.0011 50.9784 57.7928 59.3117 60.9178 63.4784C64.0428 67.645 54.6678 73.895 54.6678 73.895M33.8345 38.4784V21.8117C33.8345 20.7066 34.2735 19.6468 35.0549 18.8654C35.8363 18.084 36.8961 17.645 38.0011 17.645H88.0011C89.1062 17.645 90.166 18.084 90.9474 18.8654C91.7288 19.6468 92.1678 20.7066 92.1678 21.8117V55.145" stroke="#2C2C32" stroke-width="8.33333" stroke-linecap="round" stroke-linejoin="round"/>
<path d="M52.5845 17.645H73.4178V36.395H52.5845V17.645Z" stroke="#2C2C32" stroke-width="8.33333" stroke-linecap="round" stroke-linejoin="round"/>
</svg>
