<svg width="25" height="25" viewBox="0 0 25 25" fill="none" xmlns="http://www.w3.org/2000/svg">
<path d="M20.398 16.9783H8.398C7.468 16.9783 7.003 16.9783 6.621 17.0803C6.11231 17.2167 5.64849 17.4846 5.27618 17.8571C4.90386 18.2296 4.63616 18.6935 4.5 19.2023" stroke="#1E212D" stroke-width="1.5"/>
<path d="M8.5 7.97827H16.5M8.5 11.4783H13.5M10.5 22.9783C7.672 22.9783 6.257 22.9783 5.379 22.0993C4.5 21.2213 4.5 19.8063 4.5 16.9783V8.97827C4.5 6.15027 4.5 4.73527 5.379 3.85727C6.257 2.97827 7.672 2.97827 10.5 2.97827H14.5C17.328 2.97827 18.743 2.97827 19.621 3.85727C20.5 4.73527 20.5 6.15027 20.5 8.97827M14.5 22.9783C17.328 22.9783 18.743 22.9783 19.621 22.0993C20.5 21.2213 20.5 19.8063 20.5 16.9783V12.9783" stroke="#1E212D" stroke-width="1.5" stroke-linecap="round"/>
</svg>
