<svg width="24" height="25" viewBox="0 0 24 25" fill="none" xmlns="http://www.w3.org/2000/svg">
<path d="M19.898 16.9783H7.898C6.968 16.9783 6.503 16.9783 6.121 17.0803C5.61231 17.2167 5.14849 17.4846 4.77618 17.8571C4.40386 18.2296 4.13616 18.6935 4 19.2023" stroke="#FAF3E0" stroke-width="1.5"/>
<path d="M8 7.97827H16M8 11.4783H13M10 22.9783C7.172 22.9783 5.757 22.9783 4.879 22.0993C4 21.2213 4 19.8063 4 16.9783V8.97827C4 6.15027 4 4.73527 4.879 3.85727C5.757 2.97827 7.172 2.97827 10 2.97827H14C16.828 2.97827 18.243 2.97827 19.121 3.85727C20 4.73527 20 6.15027 20 8.97827M14 22.9783C16.828 22.9783 18.243 22.9783 19.121 22.0993C20 21.2213 20 19.8063 20 16.9783V12.9783" stroke="#FAF3E0" stroke-width="1.5" stroke-linecap="round"/>
</svg>
