<svg width="100" height="101" viewBox="0 0 100 101" fill="none" xmlns="http://www.w3.org/2000/svg">
<path fill-rule="evenodd" clip-rule="evenodd" d="M87.5 8.47827H12.5C9.84784 8.47827 7.3043 9.53184 5.42893 11.4072C3.55357 13.2826 2.5 15.8261 2.5 18.4783V68.4783C2.5 71.1304 3.55357 73.674 5.42893 75.5493C7.3043 77.4247 9.84784 78.4783 12.5 78.4783H87.5C90.1522 78.4783 92.6957 77.4247 94.5711 75.5493C96.4464 73.674 97.5 71.1304 97.5 68.4783V18.4783C97.5 15.8261 96.4464 13.2826 94.5711 11.4072C92.6957 9.53184 90.1522 8.47827 87.5 8.47827ZM7.5 18.4783C7.5 17.1522 8.02678 15.8804 8.96447 14.9427C9.90215 14.0051 11.1739 13.4783 12.5 13.4783H87.5C88.8261 13.4783 90.0979 14.0051 91.0355 14.9427C91.9732 15.8804 92.5 17.1522 92.5 18.4783V68.4783C92.5 69.8044 91.9732 71.0761 91.0355 72.0138C90.0979 72.9515 88.8261 73.4783 87.5 73.4783H12.5C11.1739 73.4783 9.90215 72.9515 8.96447 72.0138C8.02678 71.0761 7.5 69.8044 7.5 68.4783V18.4783Z" fill="#2C2C32"/>
<path d="M50 70.9783C49.0054 70.9783 48.0516 70.5832 47.3484 69.8799C46.6451 69.1767 46.25 68.2228 46.25 67.2283C46.25 66.2337 46.6451 65.2799 47.3484 64.5766C48.0516 63.8734 49.0054 63.4783 50 63.4783C50.9946 63.4783 51.9484 63.8734 52.6516 64.5766C53.3549 65.2799 53.75 66.2337 53.75 67.2283C53.75 68.2228 53.3549 69.1767 52.6516 69.8799C51.9484 70.5832 50.9946 70.9783 50 70.9783Z" fill="#2C2C32"/>
<path fill-rule="evenodd" clip-rule="evenodd" d="M57.5 73.4783H42.5C41.1739 73.4783 39.9021 74.0051 38.9645 74.9427C38.0268 75.8804 37.5 77.1522 37.5 78.4783V90.9783C37.5 92.3044 38.0268 93.5761 38.9645 94.5138C39.9021 95.4515 41.1739 95.9783 42.5 95.9783H57.5C58.8261 95.9783 60.0979 95.4515 61.0355 94.5138C61.9732 93.5761 62.5 92.3044 62.5 90.9783V78.4783C62.5 77.1522 61.9732 75.8804 61.0355 74.9427C60.0979 74.0051 58.8261 73.4783 57.5 73.4783ZM42.5 90.9783V78.4783H57.5V90.9783H42.5Z" fill="#2C2C32"/>
<path d="M27.5 95.9783C26.837 95.9783 26.2011 95.7149 25.7322 95.246C25.2634 94.7772 25 94.1413 25 93.4783C25 92.8152 25.2634 92.1793 25.7322 91.7105C26.2011 91.2417 26.837 90.9783 27.5 90.9783H72.5C73.163 90.9783 73.7989 91.2417 74.2678 91.7105C74.7366 92.1793 75 92.8152 75 93.4783C75 94.1413 74.7366 94.7772 74.2678 95.246C73.7989 95.7149 73.163 95.9783 72.5 95.9783H27.5Z" fill="#2C2C32"/>
<path fill-rule="evenodd" clip-rule="evenodd" d="M95 60.9783H5V55.9783H95V60.9783Z" fill="#2C2C32"/>
</svg>
