<svg width="101" height="101" viewBox="0 0 101 101" fill="none" xmlns="http://www.w3.org/2000/svg">
<path d="M16.125 19.7283H9.875C8.14911 19.7283 6.75 21.1274 6.75 22.8533V88.4783C6.75 90.2042 8.14911 91.6033 9.875 91.6033H16.125C17.8509 91.6033 19.25 90.2042 19.25 88.4783V22.8533C19.25 21.1274 17.8509 19.7283 16.125 19.7283Z" stroke="#2C2C32" stroke-width="6.25" stroke-linejoin="round"/>
<path d="M22.375 44.7283H47.375M22.375 79.1033H47.375" stroke="#2C2C32" stroke-width="6.25" stroke-linecap="round" stroke-linejoin="round"/>
<path d="M44.25 32.2283H25.5C23.7741 32.2283 22.375 33.6274 22.375 35.3533V88.4783C22.375 90.2042 23.7741 91.6033 25.5 91.6033H44.25C45.9759 91.6033 47.375 90.2042 47.375 88.4783V35.3533C47.375 33.6274 45.9759 32.2283 44.25 32.2283Z" stroke="#2C2C32" stroke-width="6.25" stroke-linejoin="round"/>
<path d="M66.125 10.3533H53.625C51.8991 10.3533 50.5 11.7524 50.5 13.4783V88.4783C50.5 90.2042 51.8991 91.6033 53.625 91.6033H66.125C67.8509 91.6033 69.25 90.2042 69.25 88.4783V13.4783C69.25 11.7524 67.8509 10.3533 66.125 10.3533Z" stroke="#2C2C32" stroke-width="6.25" stroke-linejoin="round"/>
<path d="M83.0113 19.7496L75.1207 20.5797C72.9488 20.8082 71.3746 22.8394 71.6187 25.0914L78.439 87.9019C78.6851 90.1539 80.6597 91.8082 82.8316 91.5816L90.7222 90.7515C92.8941 90.523 94.4683 88.4918 94.2242 86.2398L87.4136 23.439C87.1578 21.1773 85.1832 19.5211 83.0113 19.7496Z" stroke="#2C2C32" stroke-width="6.25" stroke-linejoin="round"/>
</svg>
