<svg width="101" height="101" viewBox="0 0 101 101" fill="none" xmlns="http://www.w3.org/2000/svg">
<path d="M45.646 64.6865L48.721 65.2532L45.646 64.6824V64.6865ZM70.7043 83.5365L73.7752 82.9574L70.7043 83.5407V83.5365ZM33.296 67.5782L30.2293 66.999L33.3002 67.5824L33.296 67.5782ZM11.9585 50.9782C11.9585 40.7563 16.0191 30.9531 23.2471 23.7251C30.4751 16.4972 40.2783 12.4365 50.5002 12.4365V6.18652C25.7585 6.18652 5.7085 26.2365 5.7085 50.9782H11.9585ZM28.4543 82.549C18.4793 75.5699 11.9585 64.049 11.9585 50.9782H5.7085C5.7085 66.1865 13.3127 79.5824 24.8752 87.6699L28.4543 82.549ZM30.2293 66.999L27.2252 82.9574L33.3668 84.1157L36.3668 68.1574L30.2293 66.999ZM24.4585 50.9782C24.4585 57.2032 26.6543 62.9157 30.296 67.3865L35.1377 63.4407C32.2647 59.9236 30.6994 55.5195 30.7085 50.9782H24.4585ZM50.5002 24.9365C43.5935 24.9365 36.9697 27.6802 32.0859 32.564C27.2022 37.4477 24.4585 44.0715 24.4585 50.9782H30.7085C30.7085 45.7291 32.7937 40.695 36.5053 36.9834C40.217 33.2717 45.2511 31.1865 50.5002 31.1865V24.9365ZM76.5418 50.9782C76.5418 44.0715 73.7982 37.4477 68.9144 32.564C64.0306 27.6802 57.4068 24.9365 50.5002 24.9365V31.1865C55.7492 31.1865 60.7833 33.2717 64.495 36.9834C68.2066 40.695 70.2918 45.7291 70.2918 50.9782H76.5418ZM70.7085 67.3865C74.4894 62.7548 76.5506 56.9572 76.5418 50.9782H70.2918C70.2999 55.5181 68.7348 59.9206 65.8627 63.4365L70.7085 67.3865ZM73.7752 82.9574L70.771 66.999L64.6293 68.1574L67.6293 84.1157L73.7752 82.9615V82.9574ZM89.0418 50.9782C89.0418 64.049 82.521 75.5699 72.546 82.549L76.1293 87.674C87.6918 79.5782 95.2918 66.1865 95.2918 50.9782H89.0418ZM50.5002 12.4365C60.722 12.4365 70.5253 16.4972 77.7532 23.7251C84.9812 30.9531 89.0418 40.7563 89.0418 50.9782H95.2918C95.2918 26.2365 75.2418 6.18652 50.5002 6.18652V12.4365ZM66.1252 50.9782C66.1252 46.8342 64.479 42.8599 61.5487 39.9296C58.6184 36.9994 54.6442 35.3532 50.5002 35.3532V41.6032C52.9866 41.6032 55.3711 42.5909 57.1293 44.3491C58.8874 46.1072 59.8752 48.4918 59.8752 50.9782H66.1252ZM58.4377 64.4282C60.7792 63.0497 62.7201 61.0836 64.0684 58.7246C65.4168 56.3656 66.1257 53.6953 66.1252 50.9782H59.8752C59.8752 54.4074 58.0293 57.4115 55.2585 59.0449L58.4377 64.4282ZM62.9502 88.5407L58.4293 64.1157L52.2835 65.2532L56.8043 89.6782L62.9502 88.5407ZM50.5002 95.7699C53.271 95.7699 55.9585 95.4907 58.5627 95.0074L57.4168 88.8657C55.1364 89.2965 52.821 89.5154 50.5002 89.5199V95.7699ZM42.4293 95.0032C45.0335 95.4907 47.7252 95.7699 50.5002 95.7699V89.5199C48.179 89.5146 45.8634 89.2928 43.5835 88.8574L42.4293 95.0032ZM42.5752 64.1157L38.0543 88.5365L44.2002 89.674L48.721 65.2532L42.5752 64.1157ZM34.8752 50.9782C34.8752 56.7157 37.9752 61.7199 42.5668 64.4282L45.7418 59.0449C44.3361 58.2192 43.1705 57.0404 42.3607 55.6255C41.5509 54.2105 41.125 52.6085 41.1252 50.9782H34.8752ZM50.5002 35.3532C46.3562 35.3532 42.3819 36.9994 39.4516 39.9296C36.5214 42.8599 34.8752 46.8342 34.8752 50.9782H41.1252C41.1252 48.4918 42.1129 46.1072 43.871 44.3491C45.6292 42.5909 48.0138 41.6032 50.5002 41.6032V35.3532ZM48.721 65.2532C49.2293 62.4949 47.6418 60.1699 45.7418 59.0449L42.5668 64.4282C42.582 64.4376 42.596 64.4488 42.6085 64.4615C42.621 64.474 42.6168 64.474 42.6085 64.4574C42.5895 64.4179 42.5769 64.3757 42.571 64.3324C42.5586 64.2607 42.5628 64.1874 42.5752 64.1157L48.721 65.2532ZM43.5835 88.8574C44.0793 88.9532 44.2502 89.3949 44.2002 89.674L38.0543 88.5365C37.5168 91.4282 39.3252 94.4199 42.4293 95.0032L43.5835 88.8574ZM67.6293 84.1157C68.3293 87.8324 72.6835 90.0824 76.1335 87.6699L72.546 82.549C72.6658 82.4694 72.8075 82.4205 72.9507 82.4067C73.0938 82.3929 73.2382 82.4146 73.371 82.4699C73.5877 82.5657 73.7377 82.7615 73.7752 82.9574L67.6293 84.1157ZM36.371 68.1574C36.5221 67.3281 36.49 66.4759 36.277 65.6604C36.0639 64.8449 35.6751 64.0859 35.1377 63.4365L30.296 67.3865C30.2668 67.3532 30.1877 67.2199 30.2293 66.999L36.371 68.1574ZM55.2585 59.0449C53.3585 60.1699 51.771 62.4949 52.2835 65.2532L58.4293 64.1157C58.4422 64.1887 58.4422 64.2635 58.4293 64.3365C58.4231 64.3785 58.4104 64.4192 58.3918 64.4574C58.3835 64.474 58.3793 64.474 58.3918 64.4615C58.4042 64.4487 58.4224 64.4375 58.4377 64.4282L55.2585 59.0449ZM65.8627 63.4407C64.8418 64.6907 64.3002 66.3949 64.6293 68.1574L70.771 66.999C70.8127 67.224 70.7377 67.3532 70.7085 67.3865L65.8627 63.4407ZM56.8043 89.6782C56.7793 89.4895 56.8295 89.2985 56.9441 89.1464C57.0587 88.9944 57.2285 88.8936 57.4168 88.8657L58.5627 95.0074C61.6668 94.4282 63.4835 91.4365 62.9502 88.5407L56.8043 89.6782ZM24.8752 87.6699C28.321 90.0824 32.6627 87.8282 33.3668 84.1157L27.2252 82.9615C27.2482 82.8532 27.297 82.752 27.3673 82.6664C27.4377 82.5809 27.5275 82.5135 27.6293 82.4699C27.763 82.4144 27.9083 82.393 28.0523 82.4076C28.1963 82.4221 28.3344 82.468 28.4543 82.549L24.8752 87.6699Z" fill="#2C2C32"/>
</svg>
